<svg width="3000" height="1000" viewBox="0 0 2482 752" fill="none" xmlns="http://www.w3.org/2000/svg">
<g filter="url(#filter0_d_40_2)">
<g filter="url(#filter1_d_40_2)">
<path d="M240.804 159.001L443.302 509.739C443.158 509.822 443.015 509.907 442.87 509.99C346.016 565.909 222.169 532.724 166.25 435.87C110.331 339.016 143.516 215.169 240.37 159.25C240.515 159.167 240.659 159.084 240.804 159.001Z" fill="url(#paint0_linear_40_2)"/>
</g>
<g filter="url(#filter2_d_40_2)">
<path d="M550.47 593.359L347.971 242.621C348.116 242.537 348.259 242.453 348.404 242.369C445.258 186.45 569.105 219.635 625.024 316.489C680.942 413.344 647.758 537.191 550.903 593.109C550.759 593.193 550.614 593.276 550.47 593.359Z" fill="url(#paint1_linear_40_2)"/>
</g>
<path d="M917.242 326.961C916.591 319.799 913.694 314.233 908.551 310.262C903.473 306.225 896.214 304.207 886.773 304.207C880.523 304.207 875.315 305.021 871.148 306.648C866.982 308.276 863.857 310.522 861.773 313.387C859.69 316.186 858.616 319.409 858.551 323.055C858.421 326.049 859.007 328.686 860.309 330.965C861.676 333.243 863.629 335.262 866.168 337.02C868.772 338.712 871.897 340.21 875.543 341.512C879.189 342.814 883.29 343.953 887.848 344.93L905.035 348.836C914.931 350.984 923.655 353.849 931.207 357.43C938.824 361.01 945.204 365.275 950.348 370.223C955.556 375.171 959.495 380.867 962.164 387.312C964.833 393.758 966.201 400.984 966.266 408.992C966.201 421.622 963.01 432.462 956.695 441.512C950.38 450.561 941.298 457.495 929.449 462.312C917.665 467.13 903.44 469.539 886.773 469.539C870.042 469.539 855.458 467.033 843.023 462.02C830.589 457.007 820.921 449.389 814.02 439.168C807.118 428.947 803.57 416.023 803.375 400.398H849.664C850.055 406.844 851.78 412.215 854.84 416.512C857.9 420.809 862.099 424.064 867.438 426.277C872.841 428.491 879.091 429.598 886.188 429.598C892.698 429.598 898.232 428.719 902.789 426.961C907.411 425.203 910.96 422.762 913.434 419.637C915.908 416.512 917.177 412.931 917.242 408.895C917.177 405.118 916.005 401.896 913.727 399.227C911.448 396.492 907.932 394.148 903.18 392.195C898.492 390.177 892.503 388.322 885.211 386.629L864.312 381.746C846.995 377.775 833.355 371.362 823.395 362.508C813.434 353.589 808.486 341.544 808.551 326.375C808.486 314.005 811.806 303.165 818.512 293.855C825.217 284.546 834.495 277.286 846.344 272.078C858.193 266.87 871.702 264.266 886.871 264.266C902.366 264.266 915.81 266.902 927.203 272.176C938.661 277.384 947.548 284.708 953.863 294.148C960.178 303.589 963.401 314.526 963.531 326.961H917.242ZM1019.88 523.25C1014.15 523.25 1008.75 522.794 1003.67 521.883C998.59 521.036 994.228 519.897 990.582 518.465L1001.13 483.797C1005.82 485.359 1010.05 486.271 1013.82 486.531C1017.67 486.792 1020.95 486.173 1023.69 484.676C1026.49 483.243 1028.64 480.672 1030.13 476.961L1031.99 472.469L978.668 317H1028.67L1056.3 424.031H1057.87L1085.89 317H1136.19L1079.64 481.355C1076.91 489.559 1073.04 496.785 1068.02 503.035C1063.08 509.35 1056.66 514.298 1048.79 517.879C1040.97 521.46 1031.34 523.25 1019.88 523.25ZM1202.25 381.453V467H1154.5V317H1199.91V344.539H1201.57C1204.89 335.359 1210.55 328.165 1218.56 322.957C1226.57 317.684 1236.11 315.047 1247.17 315.047C1257.72 315.047 1266.87 317.423 1274.62 322.176C1282.43 326.863 1288.48 333.439 1292.78 341.902C1297.14 350.301 1299.29 360.132 1299.22 371.395V467H1251.47V380.77C1251.54 372.436 1249.42 365.926 1245.12 361.238C1240.89 356.551 1235 354.207 1227.45 354.207C1222.43 354.207 1218.01 355.314 1214.17 357.527C1210.39 359.676 1207.46 362.768 1205.38 366.805C1203.36 370.841 1202.32 375.724 1202.25 381.453ZM1371.08 469.539C1361.5 469.539 1353.01 467.944 1345.59 464.754C1338.23 461.499 1332.4 456.616 1328.11 450.105C1323.87 443.53 1321.76 435.294 1321.76 425.398C1321.76 417.065 1323.22 410.034 1326.15 404.305C1329.08 398.576 1333.12 393.921 1338.26 390.34C1343.41 386.759 1349.33 384.057 1356.04 382.234C1362.74 380.346 1369.9 379.077 1377.52 378.426C1386.05 377.645 1392.92 376.831 1398.13 375.984C1403.33 375.073 1407.11 373.803 1409.45 372.176C1411.86 370.483 1413.07 368.107 1413.07 365.047V364.559C1413.07 359.546 1411.34 355.672 1407.89 352.937C1404.44 350.203 1399.79 348.836 1393.93 348.836C1387.61 348.836 1382.53 350.203 1378.69 352.937C1374.85 355.672 1372.41 359.448 1371.37 364.266L1327.33 362.703C1328.63 353.589 1331.98 345.451 1337.38 338.289C1342.85 331.063 1350.34 325.398 1359.84 321.297C1369.42 317.13 1380.91 315.047 1394.32 315.047C1403.89 315.047 1412.71 316.186 1420.78 318.465C1428.86 320.678 1435.89 323.934 1441.88 328.23C1447.87 332.462 1452.49 337.671 1455.74 343.855C1459.06 350.04 1460.72 357.104 1460.72 365.047V467H1415.8V446.102H1414.63C1411.96 451.18 1408.54 455.477 1404.38 458.992C1400.27 462.508 1395.42 465.145 1389.83 466.902C1384.29 468.66 1378.04 469.539 1371.08 469.539ZM1385.82 438.289C1390.96 438.289 1395.59 437.247 1399.69 435.164C1403.86 433.081 1407.18 430.216 1409.65 426.57C1412.12 422.859 1413.36 418.562 1413.36 413.68V399.422C1411.99 400.138 1410.33 400.789 1408.38 401.375C1406.49 401.961 1404.41 402.514 1402.13 403.035C1399.85 403.556 1397.51 404.012 1395.1 404.402C1392.69 404.793 1390.38 405.151 1388.17 405.477C1383.67 406.193 1379.83 407.299 1376.64 408.797C1373.52 410.294 1371.11 412.247 1369.42 414.656C1367.79 417 1366.97 419.799 1366.97 423.055C1366.97 428.003 1368.73 431.779 1372.25 434.383C1375.83 436.987 1380.35 438.289 1385.82 438.289ZM1489.92 523.25V317H1537.19V342.684H1538.65C1540.61 338.126 1543.37 333.732 1546.95 329.5C1550.6 325.268 1555.22 321.818 1560.82 319.148C1566.49 316.414 1573.26 315.047 1581.13 315.047C1591.55 315.047 1601.28 317.781 1610.33 323.25C1619.45 328.719 1626.8 337.15 1632.4 348.543C1638 359.936 1640.8 374.454 1640.8 392.098C1640.8 409.09 1638.1 423.315 1632.7 434.773C1627.36 446.232 1620.13 454.826 1611.02 460.555C1601.97 466.284 1591.91 469.148 1580.84 469.148C1573.29 469.148 1566.75 467.911 1561.21 465.437C1555.68 462.964 1551.02 459.708 1547.25 455.672C1543.54 451.635 1540.67 447.306 1538.65 442.684H1537.68V523.25H1489.92ZM1536.7 392C1536.7 400.073 1537.77 407.104 1539.92 413.094C1542.14 419.083 1545.29 423.738 1549.4 427.059C1553.56 430.314 1558.54 431.941 1564.34 431.941C1570.2 431.941 1575.18 430.314 1579.28 427.059C1583.38 423.738 1586.47 419.083 1588.56 413.094C1590.7 407.104 1591.78 400.073 1591.78 392C1591.78 383.927 1590.7 376.928 1588.56 371.004C1586.47 365.079 1583.38 360.49 1579.28 357.234C1575.24 353.979 1570.26 352.352 1564.34 352.352C1558.48 352.352 1553.5 353.947 1549.4 357.137C1545.29 360.327 1542.14 364.884 1539.92 370.809C1537.77 376.733 1536.7 383.797 1536.7 392ZM1796.78 362.801L1752.94 363.973C1752.48 360.848 1751.24 358.081 1749.22 355.672C1747.21 353.198 1744.57 351.277 1741.31 349.91C1738.12 348.478 1734.41 347.762 1730.18 347.762C1724.65 347.762 1719.93 348.868 1716.02 351.082C1712.18 353.296 1710.29 356.29 1710.36 360.066C1710.29 362.996 1711.46 365.535 1713.87 367.684C1716.35 369.832 1720.74 371.557 1727.06 372.859L1755.96 378.328C1770.94 381.193 1782.07 385.945 1789.36 392.586C1796.72 399.227 1800.43 408.016 1800.49 418.953C1800.43 429.24 1797.37 438.191 1791.31 445.809C1785.32 453.426 1777.12 459.35 1766.71 463.582C1756.29 467.749 1744.37 469.832 1730.96 469.832C1709.54 469.832 1692.65 465.437 1680.28 456.648C1667.97 447.794 1660.94 435.945 1659.19 421.102L1706.35 419.93C1707.4 425.398 1710.1 429.565 1714.46 432.43C1718.82 435.294 1724.39 436.727 1731.16 436.727C1737.28 436.727 1742.26 435.587 1746.1 433.309C1749.94 431.03 1751.89 428.003 1751.96 424.227C1751.89 420.841 1750.4 418.139 1747.47 416.121C1744.54 414.038 1739.95 412.41 1733.7 411.238L1707.53 406.258C1692.49 403.523 1681.29 398.478 1673.93 391.121C1666.57 383.699 1662.93 374.259 1662.99 362.801C1662.93 352.775 1665.6 344.214 1671 337.117C1676.41 329.956 1684.09 324.487 1694.05 320.711C1704.01 316.935 1715.76 315.047 1729.3 315.047C1749.62 315.047 1765.63 319.311 1777.35 327.84C1789.07 336.303 1795.55 347.957 1796.78 362.801ZM1894.12 469.832C1878.43 469.832 1864.89 466.74 1853.5 460.555C1842.17 454.305 1833.44 445.418 1827.33 433.895C1821.27 422.306 1818.24 408.536 1818.24 392.586C1818.24 377.091 1821.3 363.549 1827.42 351.961C1833.54 340.307 1842.17 331.258 1853.3 324.812C1864.43 318.302 1877.55 315.047 1892.66 315.047C1903.33 315.047 1913.1 316.707 1921.95 320.027C1930.81 323.348 1938.46 328.263 1944.9 334.773C1951.35 341.284 1956.36 349.324 1959.94 358.895C1963.52 368.4 1965.31 379.305 1965.31 391.609V403.523H1834.94V375.789H1920.88C1920.81 370.711 1919.61 366.186 1917.27 362.215C1914.92 358.243 1911.7 355.151 1907.6 352.937C1903.56 350.659 1898.91 349.52 1893.63 349.52C1888.3 349.52 1883.51 350.724 1879.28 353.133C1875.05 355.477 1871.69 358.699 1869.22 362.801C1866.75 366.837 1865.44 371.427 1865.31 376.57V404.793C1865.31 410.913 1866.52 416.284 1868.93 420.906C1871.34 425.464 1874.75 429.012 1879.18 431.551C1883.61 434.09 1888.88 435.359 1895 435.359C1899.23 435.359 1903.07 434.773 1906.52 433.602C1909.97 432.43 1912.94 430.704 1915.41 428.426C1917.89 426.147 1919.74 423.348 1920.98 420.027L1964.83 421.297C1963 431.128 1959 439.689 1952.81 446.98C1946.69 454.207 1938.65 459.839 1928.69 463.875C1918.73 467.846 1907.21 469.832 1894.12 469.832ZM2092.05 467H2040.09L2107.57 267H2171.93L2239.41 467H2187.46L2140.48 317.391H2138.92L2092.05 467ZM2085.11 388.289H2193.71V425.008H2085.11V388.289ZM2309.28 267V467H2260.94V267H2309.28Z" fill="white"/>
</g>
<defs>
<filter id="filter0_d_40_2" x="-4" y="0" width="2490" height="760" filterUnits="userSpaceOnUse" color-interpolation-filters="sRGB">
<feFlood flood-opacity="0" result="BackgroundImageFix"/>
<feColorMatrix in="SourceAlpha" type="matrix" values="0 0 0 0 0 0 0 0 0 0 0 0 0 0 0 0 0 0 127 0" result="hardAlpha"/>
<feOffset dy="4"/>
<feGaussianBlur stdDeviation="2"/>
<feComposite in2="hardAlpha" operator="out"/>
<feColorMatrix type="matrix" values="0 0 0 0 0 0 0 0 0 0 0 0 0 0 0 0 0 0 0.25 0"/>
<feBlend mode="normal" in2="BackgroundImageFix" result="effect1_dropShadow_40_2"/>
<feBlend mode="normal" in="SourceGraphic" in2="effect1_dropShadow_40_2" result="shape"/>
</filter>
<filter id="filter1_d_40_2" x="139.086" y="159.001" width="344.216" height="418.153" filterUnits="userSpaceOnUse" color-interpolation-filters="sRGB">
<feFlood flood-opacity="0" result="BackgroundImageFix"/>
<feColorMatrix in="SourceAlpha" type="matrix" values="0 0 0 0 0 0 0 0 0 0 0 0 0 0 0 0 0 0 127 0" result="hardAlpha"/>
<feOffset dx="20" dy="20"/>
<feGaussianBlur stdDeviation="10"/>
<feComposite in2="hardAlpha" operator="out"/>
<feColorMatrix type="matrix" values="0 0 0 0 0 0 0 0 0 0 0 0 0 0 0 0 0 0 0.25 0"/>
<feBlend mode="normal" in2="BackgroundImageFix" result="effect1_dropShadow_40_2"/>
<feBlend mode="normal" in="SourceGraphic" in2="effect1_dropShadow_40_2" result="shape"/>
</filter>
<filter id="filter2_d_40_2" x="347.971" y="215.206" width="344.216" height="418.153" filterUnits="userSpaceOnUse" color-interpolation-filters="sRGB">
<feFlood flood-opacity="0" result="BackgroundImageFix"/>
<feColorMatrix in="SourceAlpha" type="matrix" values="0 0 0 0 0 0 0 0 0 0 0 0 0 0 0 0 0 0 127 0" result="hardAlpha"/>
<feOffset dx="20" dy="20"/>
<feGaussianBlur stdDeviation="10"/>
<feComposite in2="hardAlpha" operator="out"/>
<feColorMatrix type="matrix" values="0 0 0 0 0 0 0 0 0 0 0 0 0 0 0 0 0 0 0.25 0"/>
<feBlend mode="normal" in2="BackgroundImageFix" result="effect1_dropShadow_40_2"/>
<feBlend mode="normal" in="SourceGraphic" in2="effect1_dropShadow_40_2" result="shape"/>
</filter>
<linearGradient id="paint0_linear_40_2" x1="361.292" y1="557.01" x2="158.86" y2="206.389" gradientUnits="userSpaceOnUse">
<stop stop-color="#F3904F"/>
<stop offset="1" stop-color="#19547B"/>
</linearGradient>
<linearGradient id="paint1_linear_40_2" x1="429.982" y1="195.349" x2="632.413" y2="545.97" gradientUnits="userSpaceOnUse">
<stop stop-color="#19547B"/>
<stop offset="1" stop-color="#F3904F"/>
</linearGradient>
</defs>
</svg>
